<svg width="13" height="13" viewBox="0 0 13 13" fill="none" xmlns="http://www.w3.org/2000/svg">
<path d="M0.30957 11.6689C0.294507 11.6217 0.297783 11.5773 0.314453 11.5205C0.34163 11.4281 0.393209 11.3389 0.47168 11.1895L0.472656 11.1865C0.493518 11.1458 0.514414 11.1052 0.535156 11.0645C0.577816 10.9808 0.620907 10.8971 0.664062 10.8135C0.755173 10.6365 0.843128 10.4585 0.929687 10.2832C0.976561 10.1884 1.02398 10.0932 1.07129 9.99805C1.09017 9.96003 1.10905 9.92181 1.12793 9.88379C2.0656 7.99559 3.00349 6.10701 4.90723 2.27344C4.92618 2.23527 4.94589 2.19734 4.96484 2.15918C5.01197 2.06428 5.05833 1.9689 5.10547 1.87402C5.19338 1.69707 5.28147 1.52005 5.36914 1.34277C5.40998 1.2602 5.45126 1.17736 5.49219 1.09473C5.51145 1.0558 5.53058 1.01649 5.5498 0.977539C5.6015 0.872799 5.65367 0.767761 5.70605 0.664062C5.72252 0.631438 5.73956 0.599105 5.75586 0.566406L5.75488 0.566406C5.77689 0.522441 5.80008 0.478477 5.82324 0.433593L5.82422 0.43164C5.83329 0.413829 5.84235 0.396007 5.85156 0.377929C5.87249 0.348186 5.90044 0.326285 5.94141 0.307617C6.03021 0.298759 6.08213 0.301763 6.12012 0.315429C6.1609 0.348845 6.20073 0.394522 6.24023 0.463867C6.28928 0.550019 6.32139 0.629938 6.37793 0.748047C6.4198 0.835475 6.46211 0.922649 6.50391 1.00879C6.51244 1.02639 6.52052 1.04438 6.5293 1.0625L6.53027 1.06348C6.6184 1.24499 6.70866 1.42493 6.79883 1.60254C6.93452 1.8701 7.0677 2.13894 7.19922 2.40918C7.31634 2.64973 7.43573 2.88942 7.55664 3.12793C7.69238 3.39569 7.82547 3.6652 7.95703 3.93555C8.07416 4.17611 8.19353 4.41577 8.31445 4.6543L8.71484 5.46094C8.83199 5.70154 8.95133 5.94113 9.07227 6.17969C9.20801 6.44744 9.34109 6.71696 9.47266 6.9873C9.58971 7.22771 9.70924 7.46672 9.83008 7.70508C9.96582 7.97283 10.0989 8.24235 10.2305 8.51269C10.3476 8.7533 10.4669 8.99288 10.5879 9.23144C10.7236 9.4991 10.8569 9.76794 10.9883 10.0381C11.1004 10.2686 11.2141 10.4982 11.3301 10.7266C11.3983 10.861 11.4664 10.9964 11.5342 11.1318C11.5468 11.1569 11.5593 11.1822 11.5723 11.208C11.6049 11.2734 11.6368 11.3395 11.6689 11.4062L11.6719 11.4111C11.6812 11.4297 11.6906 11.4496 11.7002 11.4687C11.7388 11.5534 11.7437 11.6088 11.7354 11.6484C11.7123 11.6817 11.6812 11.7112 11.6396 11.7363C11.5794 11.7411 11.5376 11.7406 11.5039 11.7344C11.4656 11.7273 11.4235 11.7124 11.3682 11.6758C11.3445 11.6586 11.3212 11.6408 11.2969 11.623L11.2949 11.6221C11.261 11.5979 11.2263 11.574 11.1924 11.5498L10.9639 11.3828C10.843 11.2947 10.7205 11.2101 10.5996 11.1279C10.4302 11.0128 10.2619 10.8953 10.0947 10.7764C9.92624 10.6565 9.7559 10.5379 9.58398 10.4209C9.39389 10.2915 9.20555 10.1588 9.0166 10.0244C8.86999 9.92031 8.72276 9.81694 8.57422 9.71582C8.38422 9.58648 8.19568 9.45465 8.00684 9.32031L8.00684 9.31934C7.86023 9.21523 7.71202 9.11284 7.56348 9.01172L6.99707 8.61621C6.78614 8.46644 6.57274 8.32109 6.36035 8.17676L6.36133 8.17578C6.33422 8.15725 6.30689 8.13786 6.2793 8.11719C6.27163 8.11105 6.25108 8.09482 6.23047 8.08105C6.20587 8.06463 6.16198 8.03825 6.10156 8.02637C6.04186 8.01467 5.99204 8.02182 5.96387 8.02734C5.94 8.03204 5.91517 8.04014 5.90527 8.04297L5.87402 8.05078L5.84668 8.06641L5.67578 8.1709L5.5332 8.27441C5.37674 8.38939 5.21934 8.50094 5.05957 8.60937L5.05859 8.61035C4.88524 8.72818 4.71393 8.84779 4.54395 8.96875L3.98437 9.35742C3.83201 9.4614 3.68171 9.56721 3.5332 9.67285C3.34863 9.80415 3.16252 9.93361 2.97461 10.0615C2.82231 10.1655 2.67188 10.2714 2.52344 10.377C2.33875 10.5083 2.1519 10.6376 1.96387 10.7656C1.81149 10.8696 1.66119 10.9754 1.5127 11.0811C0.99081 11.4521 0.758606 11.6166 0.613281 11.6924C0.550493 11.7251 0.521333 11.7319 0.50293 11.7344C0.48091 11.7373 0.456572 11.7358 0.400391 11.7324C0.36892 11.7192 0.343233 11.7019 0.30957 11.6689Z" stroke="black" stroke-width="0.6"/>
</svg>
