<svg width="13" height="13" viewBox="0 0 13 13" fill="none" xmlns="http://www.w3.org/2000/svg">
<path d="M11.7305 0.371094C11.7455 0.418313 11.7423 0.462786 11.7256 0.519531C11.6984 0.611981 11.6468 0.70113 11.5684 0.850586L11.5674 0.853516C11.5465 0.894204 11.5256 0.934861 11.5049 0.975586C11.4622 1.05924 11.4191 1.14295 11.376 1.22656C11.2849 1.40354 11.1969 1.58157 11.1104 1.75684C11.0635 1.85166 11.0161 1.94679 10.9687 2.04199C10.9499 2.08001 10.931 2.11823 10.9121 2.15625C9.97444 4.04445 9.03655 5.93303 7.13281 9.7666C7.11386 9.80477 7.09415 9.84269 7.07519 9.88086C7.02807 9.97576 6.98171 10.0711 6.93457 10.166C6.84666 10.343 6.75856 10.52 6.6709 10.6973C6.63006 10.7798 6.58878 10.8627 6.54785 10.9453C6.52859 10.9842 6.50946 11.0235 6.49023 11.0625C6.43854 11.1672 6.38636 11.2723 6.33398 11.376C6.31752 11.4086 6.30048 11.4409 6.28418 11.4736L6.28516 11.4736C6.26314 11.5176 6.23995 11.5616 6.2168 11.6064L6.21582 11.6084C6.20674 11.6262 6.19769 11.644 6.18848 11.6621C6.16755 11.6919 6.1396 11.7138 6.09863 11.7324C6.00983 11.7413 5.95791 11.7383 5.91992 11.7246C5.87914 11.6912 5.8393 11.6455 5.7998 11.5762C5.75076 11.49 5.71865 11.4101 5.66211 11.292C5.62024 11.2046 5.57793 11.1174 5.53613 11.0312C5.5276 11.0136 5.51952 10.9957 5.51074 10.9775L5.50977 10.9766C5.42164 10.7951 5.33138 10.6151 5.24121 10.4375C5.10552 10.1699 4.97234 9.9011 4.84082 9.63086C4.7237 9.39031 4.60431 9.15062 4.4834 8.91211C4.34766 8.64435 4.21457 8.37484 4.08301 8.10449C3.96588 7.86393 3.84651 7.62427 3.72559 7.38574L3.3252 6.5791C3.20805 6.3385 3.08871 6.09891 2.96777 5.86035C2.83203 5.5926 2.69895 5.32308 2.56738 5.05273C2.45033 4.81233 2.3308 4.57332 2.20996 4.33496C2.07422 4.0672 1.94113 3.79769 1.80957 3.52734C1.69242 3.28674 1.57309 3.04716 1.45215 2.80859C1.31646 2.54094 1.18314 2.2721 1.05176 2.00195C0.939607 1.77144 0.825961 1.54186 0.709961 1.31348C0.641771 1.17905 0.573667 1.04361 0.505859 0.908203C0.493257 0.88313 0.480751 0.857849 0.467773 0.832031C0.435162 0.766639 0.403245 0.700573 0.371094 0.633789L0.368164 0.628906C0.358834 0.61036 0.349459 0.5904 0.339844 0.571289C0.301202 0.486651 0.296317 0.431276 0.304687 0.391601C0.32775 0.358375 0.358789 0.328801 0.400391 0.30371C0.460682 0.298908 0.502436 0.299484 0.536133 0.305664C0.574441 0.312758 0.616541 0.327664 0.671875 0.364257C0.695531 0.381443 0.718794 0.399287 0.743164 0.416992L0.745117 0.417968C0.778992 0.442181 0.813776 0.46604 0.847656 0.490234L1.07617 0.657226C1.19706 0.745297 1.31949 0.829974 1.44043 0.912109C1.60984 1.02726 1.77814 1.14471 1.94531 1.26367C2.1138 1.38353 2.28414 1.50211 2.45605 1.61914C2.64615 1.74854 2.83449 1.88122 3.02344 2.01562C3.17004 2.11973 3.31728 2.2231 3.46582 2.32422C3.65581 2.45356 3.84435 2.58539 4.0332 2.71973L4.0332 2.7207C4.17981 2.8248 4.32802 2.9272 4.47656 3.02832L5.04297 3.42383C5.25389 3.5736 5.4673 3.71895 5.67969 3.86328L5.67871 3.86426C5.70581 3.88279 5.73315 3.90218 5.76074 3.92285C5.76841 3.92899 5.78896 3.94522 5.80957 3.95898C5.83417 3.97541 5.87806 4.00179 5.93848 4.01367C5.99818 4.02536 6.048 4.01822 6.07617 4.0127C6.10004 4.008 6.12487 3.9999 6.13477 3.99707L6.16602 3.98926L6.19336 3.97363L6.36426 3.86914L6.50684 3.76562C6.6633 3.65065 6.82069 3.5391 6.98047 3.43066L6.98145 3.42969C7.1548 3.31186 7.32611 3.19224 7.49609 3.07129L8.05566 2.68262C8.20803 2.57864 8.35833 2.47283 8.50684 2.36719C8.69141 2.23589 8.87752 2.10643 9.06543 1.97852C9.21773 1.87459 9.36816 1.76868 9.5166 1.66309C9.70129 1.5317 9.88814 1.40241 10.0762 1.27441C10.2285 1.17044 10.3788 1.06461 10.5273 0.958984C11.0492 0.587969 11.2814 0.423443 11.4268 0.347656C11.4895 0.314933 11.5187 0.308111 11.5371 0.305664C11.5591 0.302751 11.5835 0.304285 11.6396 0.307617C11.6711 0.320832 11.6968 0.338092 11.7305 0.371094Z" stroke="black" stroke-width="0.6"/>
</svg>
