<svg width="13" height="13" viewBox="0 0 13 13" fill="none" xmlns="http://www.w3.org/2000/svg">
<path d="M0.371094 0.469482C0.418313 0.454419 0.462786 0.457695 0.519531 0.474365C0.611981 0.501543 0.70113 0.553121 0.850586 0.631592L0.853516 0.632568C0.894204 0.65343 0.934862 0.674326 0.975586 0.695068C1.05924 0.737729 1.14295 0.780819 1.22656 0.823975C1.40354 0.915085 1.58158 1.00304 1.75684 1.0896C1.85166 1.13647 1.94679 1.1839 2.04199 1.2312C2.08001 1.25008 2.11823 1.26896 2.15625 1.28784C4.04445 2.22552 5.93303 3.1634 9.7666 5.06714C9.80477 5.08609 9.84269 5.1058 9.88086 5.12476C9.97576 5.17188 10.0711 5.21824 10.166 5.26538C10.343 5.35329 10.52 5.44139 10.6973 5.52905C10.7798 5.56989 10.8627 5.61117 10.9453 5.6521C10.9842 5.67136 11.0235 5.69049 11.0625 5.70972C11.1672 5.76141 11.2723 5.81359 11.376 5.86597C11.4086 5.88243 11.4409 5.89947 11.4736 5.91577V5.91479C11.5176 5.93681 11.5616 5.96 11.6064 5.98315L11.6084 5.98413C11.6262 5.99321 11.644 6.00226 11.6621 6.01147C11.6919 6.0324 11.7138 6.06035 11.7324 6.10132C11.7413 6.19012 11.7383 6.24205 11.7246 6.28003C11.6912 6.32081 11.6455 6.36065 11.5762 6.40015C11.49 6.44919 11.4101 6.4813 11.292 6.53784C11.2046 6.57971 11.1174 6.62202 11.0312 6.66382C11.0136 6.67235 10.9957 6.68043 10.9775 6.68921L10.9766 6.69019C10.795 6.77831 10.6151 6.86857 10.4375 6.95874C10.1699 7.09443 9.9011 7.22761 9.63086 7.35913C9.39031 7.47625 9.15062 7.59564 8.91211 7.71655C8.64435 7.85229 8.37484 7.98538 8.10449 8.11694C7.86393 8.23407 7.62427 8.35344 7.38574 8.47437L6.5791 8.87476C6.3385 8.9919 6.09891 9.11124 5.86035 9.23218C5.5926 9.36792 5.32308 9.501 5.05273 9.63257C4.81233 9.74962 4.57332 9.86915 4.33496 9.98999C4.0672 10.1257 3.79769 10.2588 3.52734 10.3904C3.28674 10.5075 3.04716 10.6269 2.80859 10.7478C2.54094 10.8835 2.2721 11.0168 2.00195 11.1482C1.77144 11.2603 1.54186 11.374 1.31348 11.49C1.17905 11.5582 1.04361 11.6263 0.908203 11.6941C0.88313 11.7067 0.857848 11.7192 0.832031 11.7322C0.766638 11.7648 0.700572 11.7967 0.633789 11.8289L0.628906 11.8318C0.61036 11.8411 0.590397 11.8505 0.571289 11.8601C0.486653 11.8987 0.431277 11.9036 0.391602 11.8953C0.358376 11.8722 0.328801 11.8412 0.303711 11.7996C0.298908 11.7393 0.299485 11.6975 0.305664 11.6638C0.312758 11.6255 0.327664 11.5834 0.364258 11.5281C0.381444 11.5044 0.39929 11.4812 0.416992 11.4568L0.417969 11.4548C0.442184 11.421 0.466041 11.3862 0.490234 11.3523L0.657227 11.1238C0.745297 11.0029 0.829974 10.8805 0.912109 10.7595C1.02726 10.5901 1.14471 10.4218 1.26367 10.2546C1.38353 10.0862 1.50211 9.91581 1.61914 9.7439C1.74854 9.5538 1.88122 9.36546 2.01562 9.17651C2.11973 9.02991 2.2231 8.88267 2.32422 8.73413C2.45356 8.54414 2.58539 8.3556 2.71973 8.16675H2.7207C2.82481 8.02014 2.9272 7.87193 3.02832 7.72339L3.42383 7.15698C3.5736 6.94606 3.71895 6.73265 3.86328 6.52026L3.86426 6.52124C3.88279 6.49414 3.90218 6.4668 3.92285 6.43921C3.92899 6.43154 3.94522 6.41099 3.95898 6.39038C3.97541 6.36578 4.00179 6.32189 4.01367 6.26147C4.02536 6.20177 4.01822 6.15195 4.0127 6.12378C4.008 6.09991 3.9999 6.07508 3.99707 6.06519L3.98926 6.03394L3.97363 6.00659L3.86914 5.83569L3.76562 5.69312C3.65065 5.53666 3.5391 5.37926 3.43066 5.21948L3.42969 5.21851C3.31186 5.04515 3.19224 4.87384 3.07129 4.70386L2.68262 4.14429C2.57864 3.99192 2.47283 3.84162 2.36719 3.69312C2.23589 3.50854 2.10643 3.32243 1.97852 3.13452C1.87459 2.98222 1.76868 2.83179 1.66309 2.68335C1.5317 2.49866 1.40241 2.31181 1.27441 2.12378C1.17044 1.97141 1.06461 1.8211 0.958984 1.67261C0.587969 1.15072 0.423443 0.918518 0.347656 0.773193C0.314933 0.710405 0.308111 0.681245 0.305664 0.662842C0.302751 0.640822 0.304285 0.616484 0.307617 0.560303C0.320832 0.528832 0.338092 0.503145 0.371094 0.469482Z" stroke="black" stroke-width="0.6"/>
</svg>
